<svg id="Layer_1" data-name="Layer 1" xmlns="http://www.w3.org/2000/svg" viewBox="0 0 296.71 296.89"><defs><style>.cls-1{fill:#ecb31f;}</style></defs><title>samjok</title><path class="cls-1" d="M229.46,311.51l12.11-10.29h0a2,2,0,0,0,1.22-.93,2.37,2.37,0,0,0,1.6-1.24,1.15,1.15,0,0,0,1-.61l.06,0a19.63,19.63,0,0,0,4-2.68.22.22,0,0,0,.3-.16,155.69,155.69,0,0,1,18.07-9.42,120.09,120.09,0,0,1,26.2-8c4.18-.74,8.39-1.34,12.58-2l.83-.06a30.74,30.74,0,0,0,6.64-.37l7.05,0c.75.09,1.5.24,2.25.26a123.13,123.13,0,0,1,34.14,6c3.25,1,6.39,2.37,9.56,3.62,4.07,1.62,8.36,1.09,12.56.11l.85-.11a.53.53,0,0,0,.66-.23l.15,0a7.52,7.52,0,0,0,1.65-.09,102.1,102.1,0,0,0,22.42-8.66c.43-.07.94.06,1.24-.42a96.94,96.94,0,0,1,10.52-2.94c11.1-2,23.47,5.06,26.28,15.32a8,8,0,0,0,.58,1.31,3.05,3.05,0,0,0,.41,1.67,29.69,29.69,0,0,1-1.09,13.69L443,306c-.74,1.45-1.47,2.91-2.21,4.37v0a2.07,2.07,0,0,0-.9,1.33l-.11.12c-3.05,3.29-6.41,6.06-10.94,7.09-3.45.78-6.83.27-10.22-.34l-.44-.11a.65.65,0,0,0-.8-.37l-.84,0c-.29-.9-1.17-1.11-1.85-1.54a15.93,15.93,0,0,1-7.22-16.77c1.68-7.43,9.12-12,16.07-9.68,3.88,1.29,6.5,4,7.1,8.13a8.64,8.64,0,0,1-4,8.73c-3,2.1-8.84,1.08-9.54-2.73,3.54,4,8,3.94,10.71,0a7.21,7.21,0,0,0,.46-8,8.59,8.59,0,0,0-7.67-4.49c-6.21-.24-11.05,5.78-10.24,12.36,1.19,9.66,13.52,13.91,21.37,8.51,4.88-3.36,6.85-8.36,7.08-14,.21-5.11-1-9.84-4.92-13.54-5.67-5.31-12.19-6.17-19.34-3.83a98.34,98.34,0,0,0-12.26,5.19,102.36,102.36,0,0,1-19,7.08,9.28,9.28,0,0,0,1.41,1.15C391,298,396.55,302.5,402,307.05c1.72,1.44,3.39,2.95,5,4.53,2.82,2.81,5.57,5.69,8.35,8.54l.42.46c.75,1.66,2.12,2.81,3.31,4.12l.18.44a1.64,1.64,0,0,0,1.07,1.22l0,0,.36.41.31.48a137.71,137.71,0,0,1,14.09,24.22A132.47,132.47,0,0,1,444.41,382c.88,5.17,1.26,10.38,1.69,15.58a110.8,110.8,0,0,1-.93,23.24,120,120,0,0,1-7.07,28,130.09,130.09,0,0,1-18.23,32.78,132.55,132.55,0,0,1-24.37,24.3,11,11,0,0,0-2.93,3.92c-3.58,7-5.3,14.58-6.36,22.36-1,7.29-1.16,14.73-3.75,21.76-3.92,10.6-14.53,17-24.62,15.8-12.8-1.47-24-14-21.41-26.42s15.78-18.5,25.76-12.2c8.18,5.17,8.45,16.61.63,21.5-5.17,3.24-11.64,1.32-13.89-4.13a7.13,7.13,0,0,1,1-7.61,6.35,6.35,0,0,1,6.88-2.21c-.2.41-.56.33-.87.35-3.74.17-6,1.95-6.51,5.07a7.5,7.5,0,0,0,5,8c3.23,1.12,6,.17,8.41-2a8.8,8.8,0,0,0,2.9-9.19A11.85,11.85,0,0,0,347,534.56c-8.14,6.5-8.15,16.86,0,23.91,6.51,5.63,14.69,6.54,21.43,2.35,5-3.1,7.33-7.82,8.48-13.4s1.19-11.53,2-17.28c.57-4.31,1.28-8.59,2.2-12.83.12-.55.76-1.23.06-1.67-.47-.3-1,.26-1.48.53a128.69,128.69,0,0,1-69.52,15.47,122.76,122.76,0,0,1-52.22-14.94c-28.08-15.42-48.09-38.1-59.56-68.14a121.49,121.49,0,0,1-6.66-26,14.32,14.32,0,0,0-1.92-4.76c-4.31-8-10.82-13.89-17.91-19.28-5.11-3.88-10.56-7.32-15-12.07-7.33-7.89-9.18-18.47-4.77-27.59,5.39-11.15,20.95-16.6,31.77-11.13,11,5.56,13.52,20.42,4.89,28.68-6.83,6.53-18.41,4.36-21.63-4.06-2.75-7.18,2.17-14.36,9.43-13.86,4.14.29,7.92,4.67,6.68,8.51-.66-.77-.32-1.72-.61-2.53a6.72,6.72,0,0,0-7.37-4.73,7.82,7.82,0,0,0-6.84,7.2c-.5,6.86,5.7,11.85,12.51,10.05,7.25-1.91,10.81-8.83,8.36-16.25-2.07-6.28-7.11-9.83-13.71-10-7.17-.17-17.42,5.24-18.87,14.67a17.55,17.55,0,0,0,4.1,14.66,48.09,48.09,0,0,0,9.45,8c6.83,4.79,13.66,9.6,19.57,15.78a3.47,3.47,0,0,0,.43-2.25,129.52,129.52,0,0,1,10.87-49.23,131.09,131.09,0,0,1,14.53-24.94c.53-.71,1-1.48,1.49-2.22h0a29.8,29.8,0,0,0,3.8-4.59l.4-.58a3.17,3.17,0,0,0,1.38-1.47,2,2,0,0,0,1.13-1.26l5.22-5.48Zm165.9,83c-.18-.19-.33-.47-.55-.56a71.71,71.71,0,0,0-25.39-6.15,92.28,92.28,0,0,0-29.23,3.64,96.48,96.48,0,0,0-16,5.79c8.15-1.13,16.28-2.24,24.5-2.64a161.6,161.6,0,0,1,24.2.56,123.56,123.56,0,0,1,22.32,4.2c.92.27,1.54.14,1.89-.93,2.79-8.56,4.37-17.23,2.54-26.23C398,364,392.16,359.29,384.67,360c-5.13.48-7.74,4.4-6.39,9.37.53,1.95,1.73,3.58,2.28,5.5l-.29.3c-2.57-1.42-4.18-3.77-5.69-6.15-4.84-7.64-1.32-17.12,7.23-19.07a18.31,18.31,0,0,1,14.64,2.89,4.9,4.9,0,0,0,2.27,1.19,53.66,53.66,0,0,0-4.1-7.69c-4.27-6.92-9.5-12.93-16.76-16.82-4.77-2.56-9.83-3.77-15.14-1.62-6.79,2.76-8,9.47-2.69,14.58.74.71,1.56,1.36,2.34,2-4.57-.38-8.71-1.52-11.38-5.48-4.75-7-1.25-17.38,6.95-20.93,8.87-3.84,17.34-2.37,25.5,1.94,9.56,5,16.8,12.64,22.75,21.56a110.78,110.78,0,0,1,8.05,15.28c-.34-4.9-2-9-3.43-13.19a82.5,82.5,0,0,0-10.26-20c-3.45-5-6.87-10-11.93-13.6-3.3-2.35-6.69-4.56-10.15-6.67a112.56,112.56,0,0,0-54.21-16.53c-.49,0-1.22-.4-1.43.35s.6.62.95.87c6.61,4.62,9.38,11.84,7.41,19.59-1.08,4.26-3.72,7.63-6.66,10.74-2.37,2.5-5.47,4.08-8.39,6.09l1,.53c6.94,4,12.45,9.22,14.52,17.31a42.74,42.74,0,0,1,.9,15,26.88,26.88,0,0,0,.31,8.45c.91,4.28,3.12,8,7.33,9.28,5.84,1.77,12.82-1.13,13.94-7.64a3.34,3.34,0,0,1,.5-.87,8.32,8.32,0,0,1,.06,1.42c-1.14,8-8.75,10.69-13.89,10-8.16-1.11-12.18-7.32-13.44-15.48-.72-4.7-.55-9.51-1.29-14.23-1-6.44-4.68-10.81-10.5-13.68a2,2,0,0,0,.31,1.54,39,39,0,0,1,3.39,16.06c.09,12.39-4.32,23.34-10.81,33.63-1.45,2.3-3.38,4.31-4.32,6.93l-.28,0,.12.21.15-.26a3.53,3.53,0,0,0,2.18-.48,171.64,171.64,0,0,1,21-6.37c15.52-3.61,31.1-4.72,46.74-.94,7.66,1.85,15,4.55,21.33,9.48ZM247.79,334.12c-.58-3.7,1.31-5.76,4-7.25A21.56,21.56,0,0,1,263,324.28c1.8,0,3.14-.31,4.14-2a9.35,9.35,0,0,1,3.82-3.12,27.34,27.34,0,0,1,16.86-2.9c4.65.63,9.23,1.68,14,1.35,6.52-.44,12.7-1.89,18.06-5.81,5.58-4.08,8.19-10,5.68-16-2.2-5.26-7.24-9-12.24-8.91-16.81.33-32.57,4.72-47.57,12.12a118.14,118.14,0,0,0-52.23,52.24,122.36,122.36,0,0,0-6.39,15.33,116.84,116.84,0,0,0,16,105.57,2.48,2.48,0,0,0,2.87,1.2,19.08,19.08,0,0,1,14.22,3,6,6,0,0,0,3.62,1.16c7.74,0,15.5-.25,23.22.11,3.73.17,5.9-1,7.38-4.28.62-1.4.68-1.95-.72-2.85A35.58,35.58,0,0,1,258,448.27c-1.07-4.37-.29-9.11-2.92-13.2-.84-1.29-1.24-1.85-2.92-1.43-11.89,3-23,1.79-32.83-6.25-.35-.29-.7-.84-1.22-.49s-.38,1-.4,1.53c-.55,14.32,4.6,25.75,18.88,31.83.43.19,1.13.17,1.08,1.15-9.07-2-16.5-6.3-21.55-14.21-5.8-9.1-6.95-19.21-6.23-29.68a7,7,0,0,0-.68-3.58,36.43,36.43,0,0,1,4.11-37.71,32.81,32.81,0,0,1,13.58-10.63c1.28-.53,2.49-1.47,4-1.35-.08.62-.59.6-.93.77-6,3-11.11,7.1-14.53,13.05-4.51,7.86-6.08,16.16-3.43,24.92,5.11,17,20.5,26.6,38.19,18.75a2.23,2.23,0,0,0,1.58-2.46,38.44,38.44,0,0,1,1.62-11.86A39.56,39.56,0,0,1,270,384.16c6.3-4.23,13.17-7.56,19.21-12.21,2.63-2,4.56-4.61,6.62-7.17a1.75,1.75,0,0,0-1.13.27,58.07,58.07,0,0,1-11.66,6c-10,3.75-20,4.89-30.06.5-3.55-1.55-7-3.43-9-7A8,8,0,0,1,245,355a7.11,7.11,0,0,1,8.83-1.31s-.06.15-.1.16l-1,.11a5.34,5.34,0,0,0-4.75,3.75c-.72,2.1.2,3.71,1.7,5.16a13.93,13.93,0,0,0,6.55,3.38c7.37,1.8,14.43.26,21.24-2.52,9.27-3.78,17.2-9.34,22.4-18.19a8.73,8.73,0,0,0,1.62-4.17,4.55,4.55,0,0,0-.75.1c-11.88,4-22.82,2.5-32.65-5.59a13.43,13.43,0,0,0-2.45-1.53A19.45,19.45,0,0,0,247.79,334.12Zm75,145.72a24.84,24.84,0,0,1-8.94,2c-1.59.08-2,.57-1.88,2.06.13,2.55.23,5.17-2,7.11a88.06,88.06,0,0,0-6.16,6.36c-3,3.27-6.11,6.49-9.18,9.73-.78.82-1.4,1.6,0,2.46a12.54,12.54,0,0,1,5.57,8.35,2.3,2.3,0,0,0,2.12,2,44.29,44.29,0,0,0,4.85.5,125.11,125.11,0,0,0,23,0,2.34,2.34,0,0,0,2.22-1.73,18.43,18.43,0,0,1,9.87-10.29,4.3,4.3,0,0,0,2.42-2.61c2.84-7.08,5.65-14.18,8.52-21.25a2.53,2.53,0,0,0-.1-2.54c-1-1.63-2.11-3.24-3-4.95-.71-1.39-1.43-1.49-2.86-.92-13.36,5.39-28,1-35.75-11.13-2-3.19-4-4.2-7.47-3.85-1.74.18-1.77.64-1.17,2a27.41,27.41,0,0,0,8.73,11C314.87,476.63,318.61,478.14,322.79,479.84ZM381.65,502c3.38-1.28,5.56-3.41,7.9-5.19A115.21,115.21,0,0,0,414,471.39a117.39,117.39,0,0,0,17.06-35.59,3.26,3.26,0,0,0-.11-2.4,27.69,27.69,0,0,0-6.29-8.64c-.87-.82-1.32-.66-2,.36a49.94,49.94,0,0,1-4.46,5.4,74.56,74.56,0,0,1-28.28,18.76c-3.7,1.41-7.52,2.52-11.52,3.85C393.9,468.3,393.27,484.59,381.65,502ZM246.2,482.48a14.47,14.47,0,0,1,.39,12.33,1.78,1.78,0,0,0,.83,2.43c7.34,5.19,14.83,10.13,23.15,13.67a1.85,1.85,0,0,0,2.11-.33c4.27-3,8.94-4.6,14.22-3.8a2.78,2.78,0,0,0,2.66-1.16c5.08-5.45,10.12-10.93,15.32-16.25a7.07,7.07,0,0,0,2.31-5.44c0-1.66-.5-2.39-2.17-2.77a26.75,26.75,0,0,1-10.09-4.48,29.38,29.38,0,0,1-11.68-17.5c-.16-.68-.36-1.35-1.16-1.58L277,456.06c-.88-.27-1.1-.1-.82.88a38.17,38.17,0,0,0,4.36,9.78,40.92,40.92,0,0,0,5,6.54c.48.5,1.4,1.06,1,1.81-.5,1-1.46.08-2.21.09a4.47,4.47,0,0,1-2-.6c-1.74-.87-2.92-.6-3.81,1.29-.73,1.54-2,2.82-2.71,4.36-.9,2-2.29,2.33-4.28,2.31C263.17,482.42,254.81,482.48,246.2,482.48ZM361,464.66c-2.15,3.12-4.13,5.55-6.8,7.33-.8.53-1.06.8-.39,1.8,1.64,2.46,3,5.09,4.56,7.62a2.63,2.63,0,0,1,.24,2.67c-2.82,6.86-5.51,13.77-8.33,20.63-.49,1.21-.42,1.82,1,1.94,3.82.32,6.74,2.31,9.16,5.1a1.8,1.8,0,0,0,2.48.5c4.33-1.78,8.49-3.9,12.64-6.07,2.59-1.34,4.44-3.06,4.62-6.17.07-1.16.48-2.28.65-3.43.65-4.39,1.13-8.83-.11-13.17-2.94-10.32-9.69-17.3-19.6-21.07-8.8-3.35-18.05-3.75-27.36-3.39a6,6,0,0,0-3.07.44,24.87,24.87,0,0,0,7.92,5.37C345.84,467.65,353.14,466.93,361,464.66Zm-18.4-34.42a1,1,0,0,0,.09.54,6.75,6.75,0,0,0,1.09,1.4c1.42,1.58,3.85,2.78,11.92,6.29a4.68,4.68,0,0,0,4.44-.12,74.35,74.35,0,0,0,20.08-14.46A71.18,71.18,0,0,0,389,413.58c-16.56-.69-31.19,3.61-44.23,13a12.33,12.33,0,0,0-1.8,1.95,1.7,1.7,0,0,0-.3.78Zm68.68-97.09c.47,1,.66,1.46.92,1.91a74.11,74.11,0,0,1,5.9,13.4,77.17,77.17,0,0,1,1.58,44.86,63.33,63.33,0,0,1-4.52,12.17c-.67,1.38-.3,1.9.79,2.59,2.24,1.42,4.47,2.88,6.58,4.47,1.27,1,1.91,1.05,2.8-.5a91.11,91.11,0,0,0,8-18.08c.61-1.92,1.52-3.86,1.1-6s-.65-4.36-1.08-6.52a117,117,0,0,0-17.25-42.21C414.77,337.25,413.64,335.09,411.27,333.15ZM385,440.09a55,55,0,0,0,16.46-5.55A57,57,0,0,0,418,422c1.06-1.18.84-1.79-.46-2.42-2.1-1-4.25-1.93-6.43-2.77a2.35,2.35,0,0,0-3.26,1,87.47,87.47,0,0,1-18.22,18.73C388.06,437.72,386.5,438.9,385,440.09Zm48.7-15.57c1.46-8.87,2.21-17.31,1.33-25.83-2.08,5.85-3.71,11.77-6.59,17.23-.27.52-.77,1.13-.2,1.71C430.17,419.61,431.61,422,433.65,424.52Zm-208,50.71c5,6.74,10.57,13,17.38,18C244.39,482,239.86,479.18,225.67,475.23Zm109.56,44.26A87.63,87.63,0,0,0,357.78,514C348.64,509,344.77,509.54,335.23,519.49Zm-59.39-6.58a102.77,102.77,0,0,0,19.82,5.93C291.91,511.1,287.44,509.77,275.84,512.91Z" transform="translate(-149.66 -272.92)"/></svg>